# xmcd
#
# Track frame offsets: 
#        150
#        17617
#        43184
#        63323
#        89073
#        110942
#        134611
#        157108
#        181368
#        205540
#        227967
#        252173
#
# Disc length: 3672 seconds
#
# Revision: 0
# Processed by: cddbd v1.5.2PL0 Copyright (c) Steve Scherf et al.
# Submitted via: ExactAudioCopyFreeDBPlugin 1.0
#
DISCID=af0e560c
DTITLE=Baby Stars - rock2sleep - Best of Coldplay
DYEAR=2014
DGENRE=
TTITLE0=In My Place
TTITLE1=Clocks
TTITLE2=Trouble
TTITLE3=Sky Full of Stars
TTITLE4=Magic
TTITLE5=The Scientist
TTITLE6=Yellow
TTITLE7=Speed of Sound
TTITLE8=Fix You
TTITLE9=Paradise
TTITLE10=Viva La Vida
TTITLE11=Atlas
EXTD=
EXTT0=
EXTT1=
EXTT2=
EXTT3=
EXTT4=
EXTT5=
EXTT6=
EXTT7=
EXTT8=
EXTT9=
EXTT10=
EXTT11=
PLAYORDER=
